<svg width="110" height="25" viewBox="0 0 110 25" fill="none" xmlns="http://www.w3.org/2000/svg">
<path d="M6.8 2.8C6.80356 2.86283 6.8268 2.92295 6.86641 2.97185C6.90603 3.02076 6.96002 3.05596 7.02075 3.07248C7.08148 3.08901 7.14586 3.08602 7.2048 3.06393C7.26373 3.04184 7.31422 3.00178 7.34913 2.94942C7.38404 2.89705 7.4016 2.83504 7.39932 2.77214C7.39704 2.70925 7.37504 2.64866 7.33643 2.59896C7.29782 2.54926 7.24456 2.51296 7.18418 2.4952C7.12381 2.47744 7.05937 2.47912 7 2.5H6C5.46957 2.5 4.96086 2.71071 4.58579 3.08578C4.21071 3.46086 4 3.96956 4 4.5V9.5C4 11.0913 4.63214 12.6174 5.75736 13.7426C6.88258 14.8679 8.4087 15.5 10 15.5C11.5913 15.5 13.1174 14.8679 14.2426 13.7426C15.3679 12.6174 16 11.0913 16 9.5V4.5C16 3.96956 15.7893 3.46086 15.4142 3.08578C15.0391 2.71071 14.5304 2.5 14 2.5H13C12.9803 2.5197 12.9647 2.54308 12.954 2.56882C12.9434 2.59455 12.9379 2.62214 12.9379 2.65C12.9379 2.67785 12.9434 2.70544 12.954 2.73118C12.9647 2.75691 12.9803 2.7803 13 2.8C13.0197 2.8197 13.0431 2.83532 13.0688 2.84598C13.0946 2.85664 13.1221 2.86213 13.15 2.86213C13.1779 2.86213 13.2054 2.85664 13.2312 2.84598C13.2569 2.83532 13.2803 2.8197 13.3 2.8" stroke="black" stroke-width="2" stroke-linecap="round" stroke-linejoin="round"/>
<path d="M10 15.5V16.5C10 18.0913 10.6321 19.6174 11.7574 20.7426C12.8826 21.8679 14.4087 22.5 16 22.5V22.5C17.5913 22.5 19.1174 21.8679 20.2426 20.7426C21.3679 19.6174 22 18.0913 22 16.5V12.5" stroke="black" stroke-width="2" stroke-linecap="round" stroke-linejoin="round"/>
<path d="M22 12.5C23.1046 12.5 24 11.6046 24 10.5C24 9.39543 23.1046 8.5 22 8.5C20.8954 8.5 20 9.39543 20 10.5C20 11.6046 20.8954 12.5 22 12.5Z" stroke="black" stroke-width="2" stroke-linecap="round" stroke-linejoin="round"/>
<path d="M42.386 19V7.264H45.032V11.782H49.082V7.264H51.746V19H49.082V14.104H45.032V19H42.386ZM58.1329 19.216C57.3769 19.216 56.6629 19.036 55.9909 18.676C55.3309 18.304 54.7969 17.77 54.3889 17.074C53.9809 16.366 53.7769 15.52 53.7769 14.536C53.7769 13.54 53.9809 12.694 54.3889 11.998C54.7969 11.302 55.3309 10.774 55.9909 10.414C56.6629 10.042 57.3769 9.856 58.1329 9.856C58.8889 9.856 59.5969 10.042 60.2569 10.414C60.9169 10.774 61.4509 11.302 61.8589 11.998C62.2669 12.694 62.4709 13.54 62.4709 14.536C62.4709 15.52 62.2669 16.366 61.8589 17.074C61.4509 17.77 60.9169 18.304 60.2569 18.676C59.5969 19.036 58.8889 19.216 58.1329 19.216ZM58.1329 17.074C58.6729 17.074 59.0809 16.846 59.3569 16.39C59.6329 15.922 59.7709 15.304 59.7709 14.536C59.7709 13.756 59.6329 13.138 59.3569 12.682C59.0809 12.226 58.6729 11.998 58.1329 11.998C57.5809 11.998 57.1669 12.226 56.8909 12.682C56.6269 13.138 56.4949 13.756 56.4949 14.536C56.4949 15.304 56.6269 15.922 56.8909 16.39C57.1669 16.846 57.5809 17.074 58.1329 17.074ZM66.7133 19.216C65.8013 19.216 65.1653 18.946 64.8053 18.406C64.4573 17.854 64.2833 17.128 64.2833 16.228V6.382H66.9293V16.336C66.9293 16.612 66.9773 16.804 67.0733 16.912C67.1813 17.02 67.2893 17.074 67.3973 17.074C67.4573 17.074 67.5053 17.074 67.5413 17.074C67.5893 17.062 67.6493 17.05 67.7213 17.038L68.0453 19C67.9013 19.06 67.7153 19.108 67.4873 19.144C67.2713 19.192 67.0133 19.216 66.7133 19.216ZM71.6837 19.216C70.8677 19.216 70.2197 18.958 69.7397 18.442C69.2597 17.914 69.0197 17.272 69.0197 16.516C69.0197 15.58 69.4157 14.848 70.2077 14.32C70.9997 13.792 72.2777 13.438 74.0417 13.258C74.0177 12.862 73.8977 12.55 73.6817 12.322C73.4777 12.082 73.1297 11.962 72.6377 11.962C72.2657 11.962 71.8877 12.034 71.5037 12.178C71.1197 12.322 70.7117 12.52 70.2797 12.772L69.3257 11.026C69.8897 10.678 70.4897 10.396 71.1257 10.18C71.7737 9.964 72.4457 9.856 73.1417 9.856C74.2817 9.856 75.1577 10.186 75.7697 10.846C76.3817 11.506 76.6877 12.52 76.6877 13.888V19H74.5277L74.3477 18.082H74.2757C73.9037 18.418 73.5017 18.694 73.0697 18.91C72.6497 19.114 72.1877 19.216 71.6837 19.216ZM72.5837 17.164C72.8837 17.164 73.1417 17.098 73.3577 16.966C73.5857 16.822 73.8137 16.636 74.0417 16.408V14.842C73.1057 14.962 72.4577 15.154 72.0977 15.418C71.7377 15.67 71.5577 15.97 71.5577 16.318C71.5577 16.606 71.6477 16.822 71.8277 16.966C72.0197 17.098 72.2717 17.164 72.5837 17.164ZM82.1119 19.216C81.0079 19.216 80.1199 18.802 79.4479 17.974C78.7879 17.134 78.4579 15.988 78.4579 14.536C78.4579 13.564 78.6319 12.73 78.9799 12.034C79.3399 11.326 79.8019 10.786 80.3659 10.414C80.9419 10.042 81.5419 9.856 82.1659 9.856C82.6579 9.856 83.0719 9.94 83.4079 10.108C83.7439 10.276 84.0619 10.504 84.3619 10.792L84.2539 9.424V6.382H86.8999V19H84.7399L84.5599 18.118H84.4879C84.1759 18.43 83.8099 18.694 83.3899 18.91C82.9699 19.114 82.5439 19.216 82.1119 19.216ZM82.7959 17.056C83.0839 17.056 83.3419 16.996 83.5699 16.876C83.8099 16.756 84.0379 16.546 84.2539 16.246V12.592C84.0259 12.376 83.7799 12.226 83.5159 12.142C83.2639 12.058 83.0179 12.016 82.7779 12.016C82.3579 12.016 81.9859 12.22 81.6619 12.628C81.3379 13.024 81.1759 13.648 81.1759 14.5C81.1759 15.376 81.3139 16.024 81.5899 16.444C81.8779 16.852 82.2799 17.056 82.7959 17.056ZM93.0782 19.216C92.3222 19.216 91.6082 19.036 90.9362 18.676C90.2762 18.304 89.7422 17.77 89.3342 17.074C88.9262 16.366 88.7222 15.52 88.7222 14.536C88.7222 13.54 88.9262 12.694 89.3342 11.998C89.7422 11.302 90.2762 10.774 90.9362 10.414C91.6082 10.042 92.3222 9.856 93.0782 9.856C93.8342 9.856 94.5422 10.042 95.2022 10.414C95.8622 10.774 96.3962 11.302 96.8042 11.998C97.2122 12.694 97.4162 13.54 97.4162 14.536C97.4162 15.52 97.2122 16.366 96.8042 17.074C96.3962 17.77 95.8622 18.304 95.2022 18.676C94.5422 19.036 93.8342 19.216 93.0782 19.216ZM93.0782 17.074C93.6182 17.074 94.0262 16.846 94.3022 16.39C94.5782 15.922 94.7162 15.304 94.7162 14.536C94.7162 13.756 94.5782 13.138 94.3022 12.682C94.0262 12.226 93.6182 11.998 93.0782 11.998C92.5262 11.998 92.1122 12.226 91.8362 12.682C91.5722 13.138 91.4402 13.756 91.4402 14.536C91.4402 15.304 91.5722 15.922 91.8362 16.39C92.1122 16.846 92.5262 17.074 93.0782 17.074ZM99.2286 19V6.382H101.803V13.618H101.875L104.701 10.072H107.581L104.449 13.744L107.815 19H104.953L102.937 15.526L101.803 16.804V19H99.2286Z" fill="#101C45"/>
</svg>
